<?xml version="1.0" encoding="UTF-8"?>
<svg id="Camada_1" data-name="Camada 1" xmlns="http://www.w3.org/2000/svg" viewBox="0 0 1920 1080">
  <path d="M1092.48,155.25c13.46,5.68,30.6,7.96,45.55,14.37,103.48,44.38,165.81,163.82,139.54,275.1,5.49,7.62,14.52,18.46,9.1,28.1-3.88,6.9-10.53,5.85-17.15,4.19-5.35,16.85-12,33.3-19.46,49.32-39.58,85.02-104.87,177.72-166.19,248.49-5.54,6.39-15.09,19.48-21.01,24.39-8.26,6.86-15.84,5.04-23.39-1.68-11.19-9.96-20.53-26.24-31.86-36.58-.72-.63-.72-1.85-1.24-2.48-60.19-73.06-125.86-162.31-161.95-250.36-3.98-9.72-7.32-19.76-10.57-29.75-22.08.56-19.4-20.01-7.75-31.95-.23-12.85-4.26-25.9-3.67-38.97-8.72-136.18,97.53-258.11,235.33-255.11,6.89.15,29.28.6,34.73,2.9ZM1068.1,172.19c-3.88-1.8-31.37.47-36.73,1.14-110.85,13.93-184.24,102.2-190,212.47-.28,12.12.52,24.24,2.03,36.25,1.58.44,1.14-.42,1.54-.87,7.71-8.6,15.65-18.22,22.82-27.28,12-15.15,17.42-23.82,24.18-42.22,13.91-37.84,16.18-66.2,45.59-97.39,60.88-64.58,160.67-68.96,223.59-4.76,29.79,30.4,46.19,74.31,44.33,116.94,6.02,5.04,12.64,10.14,18.3,15.58,12.97,12.47,24.19,26.41,36.33,39.55.5.54.87,1.8,1.59.46.28-.52.89-5.89,1-7.13,10.06-115.49-67.13-223.28-182.62-240.85-4.79-.73-7.59.12-11.96-1.9ZM1099.91,222.35c-63.29-25.07-140.92,8.72-173.75,65.97-47.97,83.63-.44,193.66,94.01,212.71,1.39.28,10.47,2.06,10.86,1.67l-.15-2.21-16.54-41.77c-1.65-2.62-8.68-4.29-11.74-5.84-66.36-33.63-73.66-127.13-15.92-173.14,56.51-45.01,140.7-19.44,163.2,48.82,13.5,40.97.83,85.38-31.79,113.13-9.42,8.01-20.51,11.98-30.86,17.95l-16.23,45.09c49.87-5.08,94.4-40.58,112.76-86.77,31.33-78.86-6.09-164.82-83.84-195.62ZM1082.26,272.55c-44.04-16.42-96.61,6.15-115.72,48.74-17.48,38.98-8.26,88.09,26.61,113.93,4.79,3.55,10.79,6.69,15.88,9.87,2.13.63.21-4.5-.02-5.4-6.8-26.41-19.11-54.16-26.93-80.82-5.65-19.26-6.53-37.77,12.44-49.58.87-.54,6.45-3.84,6.85-4.01,8.19-3.47,22.75-.99,31.34-1.09,19.15-.22,39.06-1.98,58.28-.76,6.66.42,11.12,1.83,16.6,5.08,28.56,16.95,15.81,46.52,7.44,71.2-6.55,19.31-15.88,39.97-21.33,59.3-.55,1.95-.95,4.05-1.03,6.08.72.95,18.42-11.66,19.96-12.9,18.05-14.51,30.69-40.23,32.19-63.35,2.82-43.48-22.57-81.4-62.56-96.3ZM1052.02,525.07c5.96-16.22,12.29-32.34,18.15-48.6,12.09-33.54,24.52-67.34,35.7-101.18,3.95-11.97,12.78-33.37,8.39-44.97-4.17-11.03-11.84-15.33-23.25-16.05-28.14-1.77-59.01.72-87.25.87-22.17,10.35-15.73,29.25-10.18,47.81,11.43,38.22,26.69,75.88,39.45,113.69l18.98,48.43ZM897.58,379.36c-1.32-.35-1.31.54-1.9,1.13-1.47,1.45-3.5,4.26-4.83,6.01-14.39,18.83-28.96,37.57-43.1,56.5-2.47,3.3-7.77,8.3-9.43,11.58-.6,1.19-.14,1.28.69,2.02l69.92-33.36.05-2.01c-5.34-13.49-9.24-27.5-11.38-41.87ZM1206.3,382.27l-1.86-.21c-.61,13.02-4.75,25.5-8.67,37.81l.15,2.21,69.48,34.53c.15-1.14-.77-1.98-1.4-2.84-11.66-16.02-25.4-33.71-37.89-49-6.27-7.68-13.46-14.88-19.81-22.5ZM1196.04,439.95c-1.37-.71-8.2-4.3-9.15-3.61-15.05,30.09-40.4,53.02-70.73,67.17-9.51,4.44-19.61,8.38-30.09,10.55-6.37,1.32-12.95,1.81-19.36,2.83l-9.26,23.09c29.91-1.78,58.68-11.26,84.68-25.4,20.33-11.05,43.18-31.64,55.81-51.24,1.8-2.8,8.95-15.39,8.57-17.86l-9.34-4.26c-.59-.13-.82-1.11-1.13-1.27ZM966.22,491.63c-15.55-10.43-30.11-25.24-41.14-40.49-3.25-4.49-5.97-9.38-9.22-13.87-6.82,1.51-12.32,7.04-19.61,8.53-.25,1.3.46,2.3.97,3.39,13.68,29.03,52.26,62.34,80.47,76.07,20.48,9.97,44.94,13.97,67.57,14.72l-9.2-24.34c-6.4-1.37-12.99-1.69-19.41-2.95-15.52-3.04-37.17-12.17-50.42-21.06ZM1228.55,456.91c-1.84-.94-9.87-5.74-11.27-4.74-.89.64-1.93,4.87-2.66,6.18-9.62,17.32-22.67,32.18-36.77,45.89-1.12,15.15-4.13,29.89-8.46,44.4-6.22,20.84-14.22,41.76-25.25,60.47-1.18.18-.7-1.58-.52-2.22,1.14-4.01,4.23-9.47,5.76-13.9,8.45-24.64,13.12-50.64,13.74-76.72l-12.36,9.01-16.14,9.73c-1.34,2.08-.39,10.3-.63,13.44-3.08,40.49-19.99,85.6-45.4,117.23-.86,1.08-5.83,6.88-6.42,7.13-.8.34-1.35-.2-1-1,.8-1.83,5.48-6.71,7.05-9.22,14.8-23.69,24.94-56.8,28.75-84.42,1.55-11.27,2.32-22.75,2.13-34.13-6.79,2.27-13.41,5.14-20.32,7.11-33.79,9.62-70.26,6.95-103.49-3.53-1.57-.5-8.89-4.09-9.63-3.58-.49,46.9,15.39,95.82,39.41,135.75,2.55,4.25,6.93,8.32,7.99,13.35-32.44-35.82-54.51-80.93-63.45-128.64-1.85-9.84-2.63-19.78-4.23-29.66l-15.21-9.21c-.89-1.29-8.86-7.74-9.9-6.66,1.01,26.08,4.82,52.12,12.84,76.94,1.6,4.96,4.06,9.78,5.57,14.76.2.67,1.15,2.02.22,2.49-12.17-15.45-19.15-33.44-25.06-52.19-5.75-18.24-10.55-37.13-12.22-56.23-14.25-13.63-26.04-29.67-35.8-46.86-.81-1.43-1.21-3.09-1.86-4.57l-31.73,13.14-.75,2c28.6,88.74,83.87,166.29,140.25,239.28,17.36,22.48,35.46,43.81,53.53,65.72,1.11,1.34,5.34,8.9,7.09,8.47,4.79-6.91,10.82-12.6,16.29-18.97,24.85-28.93,46.91-58.57,68.85-89.7,39.46-55.99,80.28-116.19,105.88-180.06,1.25-3.12,9.36-23.7,8.43-25-7.48-3.31-15.15-6.57-22.44-10.28-.53-.27-.64-.93-.8-1.02Z"/>
  <path d="M1054.53,409.67l-3.39,1.48-3.45-3.4c-7.69-16.56-19.1-33-26.27-49.62-2.85-6.59-4.9-9.61,2.86-13.65l52.48-.38c9.53,3.09,6.85,8.2,3.61,15.17-7.93,17.07-17.36,33.6-25.84,50.39ZM1071.33,352.93h-39.96c-1.8,1.09.16,4.17.9,5.87,5.12,11.75,13.24,23.15,18.75,34.8,2.34.02,3.15-4.55,4.03-6.14,5.98-10.87,11.43-21.96,17.22-32.95l-.93-1.59Z"/>
</svg>